<svg xmlns="http://www.w3.org/2000/svg" xmlns:xlink="http://www.w3.org/1999/xlink" xml:space="preserve" version="1.1" style="shape-rendering:geometricPrecision;text-rendering:geometricPrecision;image-rendering:optimizeQuality;" viewBox="0 0 333.33 416.66249999999997" x="0px" y="0px" fill-rule="evenodd" clip-rule="evenodd"><defs><style type="text/css">
   
    .fil0 {fill:black;fill-rule:nonzero}
   
  </style></defs><g><path class="fil0" d="M273.99 205.49c0.4,-0.25 0.83,-0.47 1.28,-0.64l30.82 -15.46 -30.35 -38.83 -96.83 44.26 34.32 41.17 60.76 -30.48zm-221.78 -71.35l111.28 -50.86c2.09,-0.96 4.39,-0.89 6.34,0l111.28 50.86c1.19,0.52 2.22,1.35 3,2.38l39.71 50.8c2.59,3.32 2,8.11 -1.31,10.7 -0.49,0.38 -1,0.69 -1.54,0.94l-35.28 17.7 0 54.69c0,3.33 -2.13,6.16 -5.09,7.21l-110.15 50.35c-1.11,0.63 -2.4,1 -3.78,1 -1.37,0 -2.66,-0.36 -3.78,-1l-110.76 -50.63c-2.8,-1.28 -4.45,-4.04 -4.46,-6.93l-0.03 0 0 -54.69 -35.28 -17.7c-0.54,-0.24 -1.06,-0.56 -1.54,-0.94 -3.32,-2.59 -3.91,-7.38 -1.31,-10.7l39.71 -50.8 0.11 -0.14c0.79,-0.97 1.74,-1.73 2.9,-2.24zm5.38 16.41l-30.35 38.83 30.82 15.46c0.45,0.17 0.88,0.39 1.28,0.64l60.76 30.48 34.32 -41.17 -96.83 -44.26zm116.72 62.55l0 97.28 96.07 -43.91 0 -42.12 -55.73 27.96c-3.26,1.63 -7.13,0.7 -9.33,-2.01l-31.01 -37.2zm-15.31 97.28l0 -97.28 -31.01 37.2c-2.2,2.72 -6.07,3.64 -9.33,2.01l-55.73 -27.96 0 42.12 96.07 43.91zm-64.88 -235.63c2.99,2.99 2.99,7.83 0,10.82 -2.99,2.99 -7.83,2.99 -10.82,0l-25.83 -25.83c-2.99,-2.99 -2.99,-7.83 0,-10.82 2.99,-2.99 7.83,-2.99 10.82,0l25.83 25.83zm155.88 10.82c-2.99,2.99 -7.83,2.99 -10.82,0 -2.99,-2.99 -2.99,-7.83 0,-10.82l25.83 -25.83c2.99,-2.99 7.83,-2.99 10.82,0 2.99,2.99 2.99,7.83 0,10.82l-25.83 25.83zm-91 -74.5c0,-4.22 3.43,-7.65 7.65,-7.65 4.22,0 7.65,3.43 7.65,7.65l0 36.02c0,4.22 -3.43,7.65 -7.65,7.65 -4.22,0 -7.65,-3.43 -7.65,-7.65l0 -36.02zm-85.38 130.04l93.03 42.52 93.03 -42.52 -93.03 -42.52 -93.03 42.52z"/></g></svg>